<?xml version="1.0" standalone="no"?>
<!DOCTYPE svg PUBLIC "-//W3C//DTD SVG 20010904//EN"
 "http://www.w3.org/TR/2001/REC-SVG-20010904/DTD/svg10.dtd">
<svg version="1.0" xmlns="http://www.w3.org/2000/svg"
 width="322.000000pt" height="133.000000pt" viewBox="0 0 322.000000 133.000000"
 preserveAspectRatio="xMidYMid meet">
<metadata>
Created by potrace 1.16, written by Peter Selinger 2001-2019
</metadata>
<g transform="translate(0.000000,133.000000) scale(0.100000,-0.100000)"
fill="#000000" stroke="none">
<path d="M0 1320 c0 -12 397 -12 500 0 41 4 -38 8 -217 8 -183 1 -283 -2 -283
-8z"/>
<path d="M650 1321 c0 -6 21 -11 48 -13 l47 -3 3 -297 2 -298 -45 0 c-25 0
-45 5 -45 10 0 6 -7 10 -15 10 -8 0 -15 4 -15 9 0 10 -97 74 -118 77 -7 2 -15
4 -15 6 -1 2 -8 12 -15 23 -7 11 -19 34 -27 51 -16 35 -32 44 -76 44 -16 0
-29 4 -29 9 0 5 24 35 53 68 58 65 102 123 92 123 -3 0 -1 10 5 23 7 13 1 9
-15 -11 -34 -41 -104 -82 -141 -82 -46 1 -103 60 -118 123 -4 15 -11 25 -16
22 -21 -13 -8 -68 35 -149 25 -47 45 -92 45 -101 0 -8 -13 -21 -28 -29 -54
-28 -172 -127 -217 -182 l-45 -56 0 -349 0 -349 1610 0 1610 0 0 665 0 665
-1285 0 c-800 0 -1285 -4 -1285 -9z"/>
<path d="M560 1280 c-9 -6 -10 -10 -3 -10 6 0 15 5 18 10 8 12 4 12 -15 0z"/>
<path d="M480 1276 c0 -2 8 -10 18 -17 15 -13 16 -12 3 4 -13 16 -21 21 -21
13z"/>
<path d="M515 1215 c0 -13 3 -21 8 -18 4 2 7 10 7 18 0 8 -3 16 -7 18 -5 3 -8
-5 -8 -18z"/>
<path d="M652 1218 c-7 -7 -11 -26 -11 -42 l2 -31 4 30 c3 17 9 36 15 43 13
15 6 16 -10 0z"/>
<path d="M294 1195 c3 -9 2 -13 -4 -10 -6 4 -17 -1 -26 -10 -15 -15 -14 -17
13 -27 18 -7 34 -23 41 -40 14 -39 47 -38 61 2 14 42 8 53 -46 79 -37 18 -44
19 -39 6z"/>
<path d="M571 1167 c2 -2 18 -11 34 -21 l30 -17 -24 20 c-13 12 -28 21 -34 21
-6 0 -8 -1 -6 -3z"/>
<path d="M524 1144 c-18 -14 -18 -14 6 -3 31 14 36 19 24 19 -6 0 -19 -7 -30
-16z"/>
</g>
</svg>
